# xmcd
#
# Track frame offsets:
#	150
#	16406
#	33360
#	48939
#	65158
#	82735
#	102265
#	112971
#	134502
#	154542
#	170426
#	189896
#	207126
#
# Disc length: 2989 seconds
#
# Revision: 0
# Processed by: cddbd v1.4PL0 Copyright (c) Steve Scherf et al.
# Submitted via: EasyCDDAExtractor 4.6.9.1
#
DISCID=9e0bab0d
DTITLE=Friderika - Kincs, ami van
DYEAR=1999
DGENRE=Christian
TTITLE0=Kincs, ami van
TTITLE1=Szemtõl szembe
TTITLE2=Tartozol egy mosollyal
TTITLE3=Másik
TTITLE4=Fogd a kezem
TTITLE5=Te vagy a válasz
TTITLE6=Mondd, miért
TTITLE7=New York City
TTITLE8=Hajnalodik
TTITLE9=A lényeg
TTITLE10=A mai világban
TTITLE11=Szeretni ne félj
TTITLE12=Édenkert
EXTD=
EXTT0=
EXTT1=
EXTT2=
EXTT3=
EXTT4=
EXTT5=
EXTT6=
EXTT7=
EXTT8=
EXTT9=
EXTT10=
EXTT11=
EXTT12=
PLAYORDER=
